# xmcd
#
# Track frame offsets:
#	150
#	23736
#	41977
#	56898
#	76252
#	90326
#	109471
#	128627
#	142660
#	156908
#	175570
#	191415
#	206603
#	225415
#	245054
#
# Disc length: 3457 seconds
#
# Revision: 3
# Processed by: cddbd v1.5.2PL0 Copyright (c) Steve Scherf et al.
# Submitted via: EasyCDDAExtractor 12.0.0.1
#
DISCID=bf0d7f0f
DTITLE=Various Artist - Marco Brasil - Festa De Rodeio Vol.2
DYEAR=1998
DGENRE=Sertanejo
TTITLE0=Tião Carreiro E Pardinho - Em Tempo de Avanço
TTITLE1=Leandro E Leonardo - Cerveja
TTITLE2=Sérgio Reis - Vanerão Do Coroa
TTITLE3=Rick E Renner - Saudade Pesada
TTITLE4=Mark O'Connor - Diggy Liggy Lo
TTITLE5=Cezar E Paulinho - Forró-Bailão
TTITLE6=João Paulo E Daniel - A Loira Do Carro Branco
TTITLE7=Tião Carreiro E Pardinho - Oi Paixão
TTITLE8=Bruno E Marrone - O Campeão
TTITLE9=Chrystian E Ralf - La Cautiva
TTITLE10=Milionário E José Rico - Vá Pro Inferno Com Seu Amor
TTITLE11=Gaúcho Da Fronteira - Segura O Tchê!
TTITLE12=Gian E Giovani - De Que Planeta Você Veio
TTITLE13=Dwight Yoakam - A Thousand Miles From Nowhere
TTITLE14=Banda Buffalo - Festa Country
EXTD=
EXTT0=
EXTT1=
EXTT2=
EXTT3=
EXTT4=
EXTT5=
EXTT6=
EXTT7=
EXTT8=
EXTT9=
EXTT10=
EXTT11=
EXTT12=
EXTT13=
EXTT14=
PLAYORDER=
